
<?xml version="1.0" encoding="utf-8"?>
<svg preserveAspectRatio="xMidYMid meet" version="1.0" viewBox="0 0 768 767.999994" xmlns="http://www.w3.org/2000/svg" xmlns:xlink="http://www.w3.org/1999/xlink" zoomAndPan="magnify">
  <defs>
    <clipPath id="c04aefbc46">
      <path clip-rule="nonzero" d="M 0 70 L 633.75 70 L 633.75 768 L 0 768 Z M 0 70 "/>
    </clipPath>
  </defs>
  <g clip-path="url(#c04aefbc46)">
    <path d="M 526.222656 71.347656 C 517.019531 72.519531 504.316406 74.753906 499.109375 76.117188 C 496.703125 76.742188 494.292969 77.355469 491.882812 77.964844 C 487.390625 79.097656 476.238281 82.667969 468.519531 85.445312 C 453.0625 91.003906 429.246094 103.191406 417.472656 111.5625 C 412.886719 114.820312 405.460938 120.304688 405.121094 120.683594 C 404.957031 120.867188 402.785156 122.636719 400.300781 124.621094 C 393.699219 129.886719 393.296875 130.230469 388.007812 135.171875 C 380.941406 141.777344 367.386719 155.78125 362.355469 161.679688 C 350.710938 175.335938 349.730469 176.550781 340.597656 188.792969 C 328.722656 204.703125 310.253906 232.304688 293.4375 259.285156 C 268.042969 300.019531 251.726562 322.355469 235.542969 338.542969 C 226.46875 347.625 222.453125 350.933594 214.269531 356.070312 C 203.597656 362.769531 194.039062 366.5 178.996094 369.835938 C 176.738281 370.339844 174.5 370.746094 174.023438 370.746094 C 173.273438 370.746094 173.15625 356.460938 173.136719 264.257812 C 173.121094 205.683594 172.871094 153.5625 172.578125 148.425781 C 171.035156 121.535156 164.171875 103.320312 150.316406 89.351562 C 141.683594 80.652344 131.851562 75.691406 118.03125 73.054688 C 112.519531 72.003906 108.886719 71.90625 75.335938 71.90625 C 34.207031 71.90625 34.882812 71.84375 30.324219 76.246094 C 27.625 78.855469 26.46875 82.359375 26.953125 86.476562 C 27.390625 90.171875 29.125 92.695312 33.507812 96.007812 C 43.238281 103.363281 53.902344 121.828125 56.828125 136.375 C 59.742188 150.875 59.511719 131.207031 59.917969 399.667969 C 60.125 536.691406 60.484375 649.75 60.714844 650.910156 C 60.945312 652.070312 61.414062 654.644531 61.75 656.632812 C 62.554688 661.371094 65.003906 669.019531 66.945312 672.855469 C 75.183594 689.132812 89.007812 698.3125 109.609375 701.183594 C 115.976562 702.070312 122.804688 702.167969 167.785156 702.003906 L 218.742188 701.820312 L 221.695312 699.996094 C 226.542969 697 229.089844 691.898438 228.316406 686.742188 C 227.792969 683.257812 225.5 681.136719 218.332031 677.5 C 206.785156 671.648438 200.023438 665.921875 193.769531 656.703125 C 183.722656 641.894531 178.296875 625.511719 174.699219 599.09375 C 172.726562 584.605469 172.546875 573.824219 173.003906 498.675781 L 173.460938 424.464844 L 174.875 422.960938 C 177.519531 420.144531 179.246094 419.835938 185.722656 421.011719 C 201.296875 423.84375 212.28125 427.410156 226.140625 434.128906 C 249.308594 445.363281 266.289062 458.339844 289.175781 482.300781 C 302.253906 495.992188 321.378906 521.648438 336.175781 545.351562 C 337.476562 547.441406 339.8125 551.136719 341.363281 553.570312 C 342.914062 556.003906 345.085938 559.539062 346.183594 561.429688 C 349.089844 566.417969 349.242188 566.660156 359.433594 583.128906 C 380.976562 617.929688 392.585938 633.855469 408.066406 649.847656 C 423.332031 665.617188 436.820312 675.855469 453.808594 684.566406 C 466.492188 691.070312 486.324219 697.46875 501.519531 699.953125 C 515.871094 702.300781 529.652344 702.855469 558.15625 702.230469 L 577.132812 701.816406 L 579.847656 700.214844 C 585.222656 697.039062 587.679688 693.09375 587.679688 687.621094 C 587.679688 683.566406 586.3125 680.839844 582.917969 678.128906 C 575.167969 671.9375 562.132812 656.976562 553.929688 644.851562 C 549.464844 638.253906 543.5 629.246094 541.578125 626.207031 C 538.140625 620.761719 526.824219 602.015625 526.824219 601.765625 C 526.824219 601.609375 526.160156 600.421875 525.34375 599.128906 C 524.527344 597.835938 520.554688 591.132812 516.519531 584.230469 C 487.195312 534.085938 463.519531 500.9375 438.269531 474.679688 C 410.992188 446.3125 382.84375 425.730469 347.882812 408.585938 C 334.710938 402.128906 331.214844 400.597656 321.375 396.984375 C 316.238281 395.097656 308.511719 392.238281 304.203125 390.628906 C 299.308594 388.804688 294.40625 387 289.5 385.214844 C 278.101562 381.089844 276.082031 379.625 278.480469 377.222656 C 279.105469 376.597656 283.792969 374.648438 288.898438 372.890625 C 303.140625 367.988281 306.746094 366.582031 318.054688 361.542969 C 327.765625 357.21875 344.421875 348.421875 360.433594 339.164062 C 385.246094 324.824219 411.445312 305.871094 431.214844 287.957031 C 459.015625 262.769531 480.070312 238.054688 504.15625 202.347656 C 512.355469 190.199219 523.347656 172.417969 528.0625 163.695312 C 536.535156 148.015625 539.304688 142.6875 543.933594 133.171875 C 550.058594 120.589844 554.386719 110.367188 556.738281 102.9375 C 558.214844 98.277344 558.457031 96.535156 558.457031 90.570312 C 558.457031 83.710938 558.433594 83.589844 556.421875 80.453125 C 551.378906 72.597656 541 69.46875 526.222656 71.347656 M -46.90625 786.800781 L -48.5625 787.714844 L -48.5625 888.960938 C -48.5625 978.152344 -48.453125 990.3125 -47.65625 991.109375 C -47.160156 991.605469 -46.753906 991.738281 -46.753906 991.402344 C -46.753906 991.066406 -47.023438 990.625 -47.355469 990.417969 C -47.753906 990.171875 -47.960938 956.160156 -47.960938 890.339844 C -47.960938 803.539062 -47.84375 790.40625 -47.070312 788.910156 C -46.230469 787.285156 -45.886719 787.160156 -41.167969 786.769531 C -33.496094 786.128906 -14.773438 786.652344 -13.179688 787.550781 C -12.441406 787.96875 -11.582031 789.183594 -11.273438 790.253906 L -10.710938 792.195312 L -10.660156 790.355469 C -10.628906 789.339844 -10.988281 787.984375 -11.457031 787.339844 C -12.261719 786.238281 -13.261719 786.164062 -28.78125 786.03125 C -42.558594 785.910156 -45.519531 786.039062 -46.90625 786.800781 M 67.761719 787.109375 C 64.910156 788.402344 62.558594 790.695312 56.679688 797.921875 C 54.65625 800.40625 52.855469 802.574219 52.671875 802.742188 C 50.988281 804.265625 42.449219 814.789062 42.894531 814.789062 C 43.617188 814.789062 47.359375 810.617188 53.246094 803.253906 C 55.722656 800.15625 60.089844 795.273438 62.949219 792.410156 L 68.144531 787.199219 L 73.203125 786.796875 C 79.230469 786.316406 106.886719 786.710938 109.894531 787.320312 C 111.878906 787.722656 111.933594 787.691406 110.835938 786.808594 C 109.828125 786 106.921875 785.871094 90.050781 785.882812 C 71.695312 785.894531 70.261719 785.976562 67.761719 787.109375 M 111.703125 790.023438 C 111.703125 791.488281 110.558594 793.175781 106.449219 797.78125 C 105.050781 799.351562 103.898438 800.972656 103.886719 801.386719 C 103.878906 801.800781 103.464844 802.136719 102.96875 802.136719 C 102.46875 802.136719 102.0625 802.339844 102.058594 802.589844 C 102.054688 802.839844 101.105469 804.039062 99.949219 805.261719 C 98.792969 806.480469 97.847656 807.597656 97.847656 807.746094 C 97.847656 807.890625 96.558594 809.367188 94.984375 811.03125 C 93.410156 812.695312 90.632812 815.746094 88.808594 817.8125 C 86.984375 819.878906 84.140625 822.988281 82.480469 824.71875 C 80.824219 826.453125 77.976562 829.589844 76.15625 831.691406 C 74.332031 833.789062 72.164062 836.191406 71.335938 837.03125 C 70.507812 837.871094 69.421875 839.136719 68.925781 839.84375 C 67.792969 841.460938 60.125 849.960938 50.25 860.554688 C 47.046875 863.988281 43.378906 868.425781 42.824219 869.53125 C 42.554688 870.078125 43.0625 869.707031 43.957031 868.714844 C 44.851562 867.71875 47.242188 865.121094 49.269531 862.941406 C 51.300781 860.757812 54.859375 856.84375 57.175781 854.238281 C 59.496094 851.636719 62.035156 848.8125 62.820312 847.964844 C 63.609375 847.113281 66.046875 844.402344 68.246094 841.929688 C 70.957031 838.894531 73.695312 835.875 76.457031 832.882812 C 78.777344 830.378906 81.351562 827.484375 82.179688 826.457031 C 83.640625 824.640625 86.113281 821.871094 98.75 807.875 C 102.0625 804.203125 106.226562 799.582031 108.003906 797.601562 C 111.945312 793.207031 113.453125 790.394531 112.421875 789.359375 C 111.867188 788.804688 111.703125 788.957031 111.703125 790.023438 M 39.050781 818.84375 C 37.4375 820.757812 35.773438 822.539062 35.351562 822.804688 C 34.929688 823.070312 34.582031 823.660156 34.582031 824.113281 C 34.582031 824.570312 36.074219 823.378906 37.898438 821.46875 C 39.71875 819.558594 41.210938 817.703125 41.210938 817.347656 C 41.210938 816.988281 41.550781 816.578125 41.964844 816.429688 C 42.378906 816.28125 42.550781 815.980469 42.351562 815.761719 C 42.148438 815.542969 40.664062 816.929688 39.050781 818.84375 M 32.367188 826.695312 C 31.644531 827.605469 30.550781 828.890625 29.9375 829.550781 C 28.886719 830.683594 21.160156 840.105469 19.933594 841.753906 C 19.625 842.167969 19.503906 842.503906 19.660156 842.503906 C 19.820312 842.503906 22.207031 839.863281 24.96875 836.632812 C 27.726562 833.402344 30.882812 829.84375 31.984375 828.730469 C 33.082031 827.617188 33.980469 826.328125 33.980469 825.867188 C 33.980469 824.738281 33.878906 824.792969 32.367188 826.695312 M 566.589844 834.714844 C 563.5 834.949219 565.117188 835.0625 571.710938 835.078125 C 581.039062 835.09375 582.195312 834.886719 574.726562 834.539062 C 572.738281 834.449219 569.078125 834.527344 566.589844 834.714844 M 400.476562 835.121094 C 402.726562 835.234375 406.25 835.234375 408.308594 835.117188 C 410.367188 835 408.523438 834.90625 404.21875 834.90625 C 399.910156 834.90625 398.226562 835.003906 400.476562 835.121094 M 389.574219 835.871094 C 388.480469 836.128906 387.421875 836.507812 387.214844 836.710938 C 386.648438 837.28125 388.824219 837.050781 392.167969 836.191406 C 394.5 835.59375 394.773438 835.417969 393.371094 835.410156 C 392.378906 835.402344 390.671875 835.609375 389.574219 835.871094 M 414.460938 835.878906 C 414.664062 836.210938 415.410156 836.480469 416.113281 836.480469 C 418.742188 836.480469 425.449219 838.484375 429.824219 840.578125 C 441.746094 846.285156 450.46875 855.121094 456.601562 867.710938 C 460.222656 875.140625 462.074219 881.214844 464.078125 892.210938 C 464.625 895.21875 464.625 895.222656 464.699219 892.855469 C 464.738281 891.550781 464.386719 888.972656 463.921875 887.128906 C 463.371094 884.914062 462.84375 882.691406 462.339844 880.460938 C 460.578125 872.550781 454.398438 860.40625 449.15625 854.554688 C 447.820312 853.0625 446.71875 851.652344 446.710938 851.417969 C 446.703125 851.179688 444.539062 849.25 441.910156 847.125 C 437.867188 843.863281 434.867188 842.105469 426.695312 838.207031 C 425.191406 837.488281 416.519531 835.277344 415.214844 835.277344 C 414.59375 835.277344 414.253906 835.546875 414.460938 835.878906 M 554.238281 836.234375 C 547.054688 838.324219 544.542969 839.113281 543.695312 839.550781 C 541.988281 840.4375 535.9375 843.109375 535.640625 843.109375 C 534.804688 843.109375 524.210938 850.589844 521.933594 852.792969 C 519.597656 855.046875 519.535156 855.167969 521.402344 853.835938 C 530.066406 847.667969 532.492188 846.070312 536.601562 843.828125 C 542.496094 840.609375 549.171875 838.238281 557.402344 836.445312 C 559.144531 836.066406 560.566406 835.648438 560.566406 835.515625 C 560.566406 835.007812 557.121094 835.398438 554.238281 836.234375 M 584.664062 835.804688 C 585.496094 836.089844 587.800781 836.785156 589.789062 837.347656 C 596.164062 839.160156 602.320312 841.9375 606.957031 845.09375 C 609.445312 846.789062 611.566406 848.386719 611.679688 848.652344 C 611.789062 848.917969 612.144531 849.132812 612.464844 849.132812 C 614.367188 849.132812 607.628906 844.0625 601.769531 841.078125 C 596.984375 838.648438 589.796875 836.195312 585.871094 835.660156 C 584.003906 835.40625 583.628906 835.453125 584.664062 835.804688 M 381.019531 838.542969 C 375.8125 840.675781 371.390625 843.0625 368.09375 845.523438 C 363.742188 848.769531 359.027344 853.25 359.484375 853.703125 C 359.695312 853.917969 361.390625 852.574219 363.25 850.714844 C 366.789062 847.175781 370.054688 844.75 374.09375 842.667969 C 378.804688 840.234375 383.480469 838.289062 384.617188 838.289062 C 385.25 838.289062 385.9375 838.015625 386.140625 837.6875 C 386.738281 836.722656 384.601562 837.082031 381.019531 838.542969 M 133.351562 840.046875 L 131.585938 841.808594 L 131.71875 892.015625 L 131.851562 942.21875 L 132.171875 892.484375 C 132.46875 845.878906 132.558594 842.648438 133.578125 841.09375 L 134.664062 839.4375 L 150.160156 839.617188 C 164.691406 839.785156 165.738281 839.871094 166.941406 841 C 167.648438 841.664062 168.347656 842.882812 168.5 843.710938 C 168.746094 845.046875 168.785156 845.007812 168.859375 843.363281 C 168.914062 842.082031 168.464844 841.0625 167.386719 840.050781 C 165.835938 838.59375 165.800781 838.589844 150.476562 838.433594 L 135.117188 838.277344 Z M 245.757812 839.464844 C 244.765625 840.128906 243.777344 841.289062 243.558594 842.042969 C 243.34375 842.792969 243.136719 862.929688 243.097656 886.789062 C 243.042969 921.890625 242.863281 930.945312 242.167969 934.234375 C 241.183594 938.867188 237.355469 946.632812 234.285156 950.222656 C 231.328125 953.675781 231.703125 953.863281 234.804688 950.476562 C 238.097656 946.886719 241.410156 940.050781 243.011719 933.550781 C 244.207031 928.691406 244.253906 926.894531 244.253906 886.78125 C 244.253906 863.839844 244.414062 844.269531 244.609375 843.296875 C 245.246094 840.097656 246.402344 839.8125 259.617188 839.59375 C 275.332031 839.335938 277.289062 839.585938 279.046875 842.074219 L 280.402344 843.996094 L 280.402344 842.441406 C 280.402344 841.585938 279.832031 840.367188 279.136719 839.738281 C 277.972656 838.683594 276.636719 838.574219 262.71875 838.421875 C 248.390625 838.261719 247.46875 838.320312 245.757812 839.464844 M 320.359375 838.878906 C 319.632812 839.179688 318.753906 839.964844 318.398438 840.625 C 317.679688 841.96875 317.535156 987.839844 318.253906 989.640625 C 318.476562 990.210938 318.664062 957.175781 318.664062 916.234375 L 318.664062 841.796875 L 320.121094 840.613281 C 321.496094 839.503906 322.425781 839.445312 335.90625 839.613281 C 345.734375 839.738281 350.453125 840.015625 350.929688 840.492188 C 351.316406 840.875 351.84375 842.09375 352.105469 843.203125 L 352.578125 845.21875 L 352.640625 843.363281 C 352.683594 842.097656 352.210938 841.046875 351.148438 840.050781 C 349.605469 838.601562 349.5 838.589844 335.636719 838.460938 C 327.957031 838.390625 321.082031 838.578125 320.359375 838.878906 M 638.011719 838.753906 C 627.269531 838.910156 626.507812 838.996094 625.207031 840.214844 C 624.449219 840.925781 623.828125 842.011719 623.828125 842.621094 C 623.828125 843.5 624.1875 843.324219 625.585938 841.761719 L 627.34375 839.792969 L 639.996094 839.792969 C 652.515625 839.792969 652.664062 839.808594 654.1875 841.238281 C 655.628906 842.589844 655.734375 843.097656 655.914062 849.371094 L 656.105469 856.0625 L 656.234375 849.015625 C 656.355469 842.453125 656.269531 841.867188 655.007812 840.492188 C 653.320312 838.648438 652.316406 838.546875 638.011719 838.753906 M 16.183594 845.960938 C 14.871094 847.496094 13.28125 849.414062 12.648438 850.214844 C 11.519531 851.648438 11.519531 851.660156 12.648438 850.9375 C 14.035156 850.046875 19.1875 843.78125 18.828125 843.417969 C 18.6875 843.277344 17.496094 844.421875 16.183594 845.960938 M 615.996094 852.445312 C 619.039062 855.546875 620.125 856.128906 617.464844 853.230469 C 616.636719 852.332031 615.808594 851.425781 614.984375 850.519531 C 614.59375 850.089844 614.0625 849.734375 613.804688 849.734375 C 613.546875 849.734375 614.53125 850.957031 615.996094 852.445312 M 10.777344 852.605469 C 9.679688 853.398438 5.0625 858.929688 5.0625 859.445312 C 5.0625 859.894531 7.449219 857.390625 10.730469 853.5 C 11.886719 852.132812 11.902344 851.792969 10.777344 852.605469 M 514.398438 860.339844 C 509.445312 865.851562 507.335938 868.921875 503.394531 876.339844 C 500.164062 882.417969 496.382812 892.960938 495.863281 897.332031 C 495.546875 900 495.550781 900.011719 496.183594 897.933594 C 496.535156 896.777344 497.230469 894.335938 497.726562 892.511719 C 500.128906 883.710938 505.433594 872.410156 509.03125 868.4375 C 509.539062 867.875 509.957031 867.226562 509.957031 866.992188 C 509.957031 866.761719 510.824219 865.621094 511.882812 864.453125 C 512.945312 863.289062 514.234375 861.773438 514.746094 861.089844 C 515.261719 860.40625 516.453125 858.929688 517.398438 857.804688 C 520.617188 853.976562 518.53125 855.742188 514.398438 860.34375 M 655.761719 923.660156 C 655.519531 976.863281 655.304688 990.214844 654.679688 990.839844 C 654.25 991.273438 653.03125 991.941406 651.96875 992.332031 C 650.058594 993.03125 650.054688 993.039062 651.660156 993.085938 C 652.554688 993.109375 653.980469 992.519531 654.835938 991.773438 L 656.390625 990.417969 L 656.226562 923.84375 L 656.0625 857.265625 Z M -0.761719 866.15625 C -6.9375 873.449219 -7.230469 873.835938 -6.601562 873.835938 C -6.304688 873.835938 -5.660156 873.183594 -5.171875 872.382812 C -4.679688 871.585938 -2.921875 869.464844 -1.265625 867.667969 C 1.785156 864.359375 4.714844 860.582031 4.230469 860.582031 C 4.082031 860.582031 1.835938 863.089844 -0.761719 866.15625 M 566.289062 868.207031 C 561.234375 869.285156 554.785156 872.453125 549.417969 876.492188 C 546.113281 878.980469 539.953125 885.355469 540.410156 885.8125 C 540.613281 886.015625 541.339844 885.417969 542.019531 884.484375 C 543.65625 882.238281 547.628906 878.542969 550.625 876.484375 C 554.183594 874.035156 561.210938 870.21875 562.164062 870.21875 C 562.617188 870.21875 563.464844 869.972656 564.039062 869.667969 C 564.613281 869.367188 566.035156 868.851562 567.191406 868.523438 C 569.277344 867.941406 568.621094 867.710938 566.289062 868.207031 M 376.867188 870.875 C 376.074219 871.191406 375.574219 871.601562 375.757812 871.785156 C 375.941406 871.972656 376.863281 871.703125 377.804688 871.195312 C 379.695312 870.167969 379.121094 869.972656 376.867188 870.875 M 37.144531 875.039062 C 34.742188 877.34375 32.777344 879.492188 32.777344 879.8125 C 32.777344 880.132812 32.285156 880.75 31.683594 881.179688 C 31.085938 881.613281 30.382812 882.375 30.121094 882.871094 C 29.667969 883.746094 39.449219 873.957031 41.132812 871.855469 C 42.703125 869.894531 41.496094 870.859375 37.144531 875.039062 M 596.414062 871.242188 C 596.746094 871.550781 597.832031 872.140625 598.824219 872.558594 C 600.414062 873.226562 600.523438 873.210938 599.726562 872.4375 C 599.230469 871.953125 598.148438 871.359375 597.316406 871.121094 C 596.386719 870.851562 596.042969 870.898438 596.414062 871.242188 M 371.070312 874.054688 C 367.375 876.546875 361.136719 882.429688 361.136719 883.421875 C 361.136719 883.824219 362.96875 882.285156 365.207031 879.996094 C 367.441406 877.710938 370.558594 875.089844 372.132812 874.175781 C 373.707031 873.261719 374.996094 872.40625 374.996094 872.273438 C 374.996094 871.660156 373.851562 872.179688 371.070312 874.054688 M 412.058594 874.660156 C 413.710938 875.777344 415.808594 877.441406 416.71875 878.359375 C 417.628906 879.273438 418.375 879.726562 418.375 879.359375 C 418.375 878.59375 410.695312 872.628906 409.707031 872.628906 C 409.347656 872.628906 410.40625 873.542969 412.058594 874.660156 M 607.863281 879.257812 C 610.40625 881.863281 611.476562 882.511719 609.613281 880.316406 C 608.117188 878.554688 606.257812 876.847656 605.839844 876.847656 C 605.65625 876.847656 606.566406 877.933594 607.863281 879.257812 M 537.046875 890.4375 C 536.320312 891.613281 535.84375 892.695312 535.988281 892.839844 C 536.132812 892.984375 536.859375 892.019531 537.601562 890.699219 C 539.277344 887.71875 538.851562 887.519531 537.046875 890.4375 M 28.558594 889.515625 C 28.558594 889.890625 31.457031 893.089844 34.996094 896.625 C 42.117188 903.734375 40.921875 902.242188 30.117188 890.523438 C 29.257812 889.59375 28.558594 889.140625 28.558594 889.515625 M 356.621094 891.910156 C 356.394531 892.625 356.34375 893.34375 356.507812 893.507812 C 356.675781 893.671875 356.996094 893.226562 357.222656 892.511719 C 357.449219 891.800781 357.5 891.082031 357.332031 890.914062 C 357.167969 890.75 356.84375 891.199219 356.621094 891.910156 M 355.515625 894.722656 C 355.292969 894.941406 355.132812 895.6875 355.152344 896.378906 C 355.1875 897.53125 355.234375 897.519531 355.765625 896.191406 C 356.355469 894.714844 356.234375 894.003906 355.515625 894.722656 M 533.195312 898.28125 C 532.972656 899.164062 532.910156 900 533.050781 900.144531 C 533.191406 900.285156 533.488281 899.679688 533.710938 898.796875 C 533.933594 897.914062 534 897.074219 533.855469 896.933594 C 533.714844 896.789062 533.417969 897.398438 533.195312 898.28125 M 531.644531 903.359375 C 531.269531 904.75 531.082031 906.007812 531.226562 906.152344 C 531.371094 906.296875 531.78125 905.261719 532.140625 903.851562 C 532.496094 902.441406 532.683594 901.183594 532.558594 901.058594 C 532.433594 900.929688 532.019531 901.964844 531.644531 903.359375 M -4.535156 907.425781 C -3.101562 909 -1.78125 910.421875 -1.597656 910.585938 C -1.414062 910.753906 -0.34375 911.972656 0.785156 913.300781 C 2.492188 915.308594 9.867188 923.601562 11.992188 925.898438 C 12.324219 926.257812 14.222656 928.453125 16.210938 930.769531 C 18.195312 933.089844 20.835938 936.070312 22.074219 937.398438 C 23.3125 938.722656 24.332031 940.011719 24.335938 940.261719 C 24.339844 940.507812 24.625 940.710938 24.972656 940.710938 C 25.941406 940.710938 25.023438 939.441406 20.726562 934.820312 C 18.570312 932.503906 16.394531 930.105469 15.886719 929.484375 C 13.449219 926.515625 5.308594 917.492188 4.910156 917.316406 C 4.660156 917.203125 4.457031 916.886719 4.457031 916.609375 C 4.457031 916.332031 3.714844 915.328125 2.800781 914.382812 C 1.890625 913.433594 -0.550781 910.839844 -2.621094 908.613281 C -4.691406 906.382812 -6.554688 904.5625 -6.765625 904.5625 C -6.972656 904.5625 -5.96875 905.851562 -4.535156 907.425781 M 49.519531 912.847656 C 54.476562 918.332031 58.441406 922.078125 55.097656 918.117188 C 50.125 912.226562 46.355469 908.179688 45.847656 908.179688 C 45.546875 908.179688 47.199219 910.277344 49.519531 912.847656 M 530.675781 916.914062 C 530.675781 921.222656 530.773438 922.90625 530.886719 920.65625 C 531.003906 918.402344 531.003906 914.878906 530.886719 912.820312 C 530.769531 910.765625 530.675781 912.605469 530.675781 916.914062 M 58.414062 922.710938 C 59.429688 923.832031 61.90625 926.507812 63.917969 928.664062 C 65.933594 930.816406 68.730469 933.933594 70.136719 935.589844 C 73.792969 939.894531 78.664062 945.03125 78.886719 944.8125 C 78.988281 944.707031 78.078125 943.519531 76.863281 942.167969 C 74.613281 939.667969 72.371094 937.167969 70.132812 934.664062 C 60.425781 923.824219 57.894531 921.125 57.246094 920.902344 C 56.878906 920.777344 57.402344 921.59375 58.414062 922.710938 M 620.53125 930.296875 C 620.300781 931.53125 619.707031 933.316406 619.214844 934.269531 C 618.71875 935.226562 618.457031 936.144531 618.628906 936.316406 C 619.046875 936.738281 620.832031 932.441406 621.246094 930.019531 C 621.707031 927.289062 621.046875 927.550781 620.53125 930.296875 M 531.6875 929.300781 C 531.605469 931.144531 535.195312 940.710938 536.722656 942.710938 C 537.574219 943.828125 538.277344 944.988281 538.277344 945.289062 C 538.28125 945.589844 539.488281 947.054688 540.960938 948.546875 C 542.433594 950.035156 543.652344 951.496094 543.667969 951.792969 C 543.699219 952.4375 545.570312 953.921875 546.382812 953.949219 C 546.699219 953.960938 545.851562 952.816406 544.492188 951.40625 C 539.121094 945.828125 535.398438 939.585938 532.914062 931.976562 C 532.261719 929.988281 531.710938 928.785156 531.6875 929.304688 M 616.640625 939.722656 C 614.464844 944.21875 610.183594 949.515625 605.519531 953.488281 C 600.097656 958.101562 599.703125 958.5 601.480469 957.585938 C 604.488281 956.035156 613.523438 946.609375 615.996094 942.449219 C 617.367188 940.140625 618.386719 937.941406 618.257812 937.558594 C 618.128906 937.175781 617.402344 938.148438 616.640625 939.722656 M 496.105469 940.460938 C 496.113281 941.097656 496.390625 942.023438 496.730469 942.519531 C 497.175781 943.179688 497.230469 942.9375 496.9375 941.617188 C 496.441406 939.402344 496.09375 938.921875 496.105469 940.460938 M 171.039062 941.214844 C 172.089844 944.6875 174.496094 949.046875 176.269531 950.679688 L 178.199219 952.460938 L 176.03125 949.4375 C 174.839844 947.773438 173.390625 945.199219 172.816406 943.714844 C 171.667969 940.75 170.328125 938.863281 171.039062 941.214844 M 31.035156 947.65625 C 34.078125 951.140625 36.722656 953.839844 36.910156 953.648438 C 37.101562 953.457031 36.859375 953.054688 36.375 952.753906 C 35.886719 952.449219 35.488281 951.957031 35.488281 951.652344 C 35.488281 951.074219 26.363281 941.316406 25.824219 941.316406 C 25.648438 941.316406 27.996094 944.167969 31.035156 947.65625 M 427.578125 947.941406 C 427.578125 949.433594 427.695312 950.042969 427.839844 949.296875 C 427.980469 948.554688 427.980469 947.332031 427.839844 946.585938 C 427.695312 945.84375 427.578125 946.453125 427.578125 947.941406 M 81.09375 947.71875 C 81.34375 948.640625 91.175781 959.03125 91.496094 958.710938 C 91.636719 958.570312 89.3125 955.886719 86.332031 952.746094 C 83.351562 949.609375 80.992188 947.34375 81.09375 947.71875 M 499.15625 949.75 C 499.152344 950.617188 500.851562 954.066406 500.898438 953.285156 C 500.910156 953.074219 500.523438 951.988281 500.039062 950.875 C 499.554688 949.757812 499.15625 949.253906 499.15625 949.75 M 133.449219 950.742188 C 133.335938 952.175781 135.835938 959.234375 137.636719 962.558594 C 139.710938 966.390625 140.699219 967.320312 138.910156 963.757812 C 136.59375 959.144531 135.675781 956.96875 134.601562 953.554688 C 134 951.628906 133.476562 950.363281 133.449219 950.742188 M 179.109375 954.632812 C 179.855469 955.328125 180.617188 955.746094 180.800781 955.5625 C 181.257812 955.105469 179.445312 953.367188 178.511719 953.367188 C 178.089844 953.367188 178.355469 953.929688 179.109375 954.632812 M 228.886719 955.671875 C 227.5625 956.890625 225.800781 958.367188 224.972656 958.953125 L 223.46875 960.019531 L 225.273438 959.121094 C 227.234375 958.152344 231.921875 954.085938 231.53125 953.699219 C 231.398438 953.566406 230.210938 954.453125 228.886719 955.671875 M 548.726562 956.046875 C 550.832031 957.996094 557.382812 961.617188 559.664062 962.09375 C 560.65625 962.300781 559.484375 961.511719 557.0625 960.347656 C 554.636719 959.179688 551.617188 957.402344 550.347656 956.398438 C 547.582031 954.207031 546.488281 953.96875 548.726562 956.046875 M 38.882812 956.289062 C 39.21875 957.234375 45.667969 964.738281 46.179688 964.777344 C 47.300781 964.863281 46.351562 963.511719 42.648438 959.734375 C 40.460938 957.5 38.765625 955.949219 38.882812 956.289062 M 502.167969 956.679688 C 502.167969 957.011719 502.554688 957.960938 503.027344 958.789062 C 503.5 959.617188 503.886719 960.023438 503.886719 959.691406 C 503.886719 959.359375 503.5 958.410156 503.027344 957.582031 C 502.554688 956.753906 502.167969 956.347656 502.167969 956.679688 M 354.09375 962.703125 C 354.097656 964.691406 354.210938 965.433594 354.34375 964.351562 C 354.480469 963.265625 354.476562 961.640625 354.339844 960.734375 C 354.203125 959.828125 354.089844 960.714844 354.09375 962.703125 M 595.777344 960.273438 C 595.132812 960.761719 594.878906 961.160156 595.210938 961.160156 C 595.539062 961.160156 596.339844 960.761719 596.980469 960.273438 C 597.625 959.789062 597.878906 959.390625 597.546875 959.390625 C 597.21875 959.390625 596.421875 959.789062 595.777344 960.273438 M 190.558594 962.09375 C 192.339844 962.925781 194.238281 963.59375 194.773438 963.578125 C 195.3125 963.5625 194.398438 963.019531 192.738281 962.371094 C 188.101562 960.554688 186.957031 960.40625 190.558594 962.09375 M 93.628906 961.449219 C 93.628906 961.960938 95.5625 964.167969 102.632812 971.742188 C 104.492188 973.730469 106.78125 976.304688 107.722656 977.464844 C 108.664062 978.625 110.851562 981.089844 112.585938 982.949219 C 116.675781 987.328125 117 988.585938 114.621094 990.808594 C 113.613281 991.75 112.609375 992.421875 112.394531 992.300781 C 112.179688 992.175781 111.460938 992.292969 110.800781 992.5625 C 109.785156 992.96875 109.882812 993.050781 111.417969 993.089844 C 113.148438 993.128906 115.695312 991.847656 116.664062 990.453125 C 118.1875 988.265625 117.183594 986.75 106.199219 974.644531 C 95.375 962.714844 93.628906 960.882812 93.628906 961.449219 M 217.742188 962.433594 C 215.863281 963.203125 215.441406 963.550781 216.375 963.574219 C 217.109375 963.59375 218.601562 963.066406 219.6875 962.40625 C 222.089844 960.9375 221.367188 960.949219 217.742188 962.433594 M 562.375 962.976562 C 562.871094 963.3125 563.796875 963.59375 564.433594 963.597656 C 565.972656 963.609375 565.492188 963.265625 563.277344 962.769531 C 561.957031 962.476562 561.714844 962.53125 562.375 962.976562 M 199.761719 964.898438 C 201.554688 965.402344 209.039062 965.394531 211.414062 964.886719 C 212.410156 964.675781 209.875 964.5 205.78125 964.5 C 201.691406 964.5 198.980469 964.679688 199.761719 964.898438 M 569.460938 964.917969 C 570.761719 965.429688 581.3125 965.410156 583.757812 964.886719 C 584.746094 964.675781 581.699219 964.503906 576.988281 964.503906 C 572.273438 964.503906 568.886719 964.6875 569.460938 964.917969 M 507.613281 966.320312 C 509.171875 968.644531 511.160156 970.925781 511.160156 970.382812 C 511.160156 970.082031 510.183594 968.773438 508.984375 967.472656 C 507.789062 966.175781 507.171875 965.65625 507.613281 966.320312 M 48.441406 966.96875 C 48.441406 967.472656 54.6875 974.667969 58.335938 978.367188 C 61.007812 981.074219 60.703125 980.3125 57.867188 977.1875 C 57.253906 976.511719 56.121094 975.144531 55.351562 974.152344 C 53.480469 971.742188 48.441406 966.503906 48.441406 966.96875 M 511.765625 971.210938 C 511.773438 972.140625 519.621094 979.855469 523.699219 982.941406 C 527.832031 986.070312 539.707031 992.207031 542.792969 992.808594 C 544.882812 993.214844 545.203125 993.390625 534.355469 988.238281 C 528.152344 985.289062 520.253906 979.445312 514.628906 973.640625 C 513.050781 972.011719 511.765625 970.921875 511.765625 971.210938 M 143.035156 971.613281 C 143.035156 972.175781 147.332031 976.984375 151.148438 980.691406 C 155.507812 984.925781 158.214844 986.847656 164.410156 990.113281 C 168.765625 992.40625 179.03125 995.894531 179.636719 995.285156 C 179.785156 995.136719 178.726562 994.714844 177.285156 994.34375 C 166.015625 991.449219 158.148438 986.515625 147.210938 975.492188 C 144.914062 973.175781 143.035156 971.429688 143.035156 971.613281 M 613.0625 978.972656 C 612.046875 980.132812 610.933594 981.082031 610.59375 981.082031 C 610.25 981.082031 609.972656 981.351562 609.972656 981.683594 C 609.972656 982.015625 609.675781 982.285156 609.3125 982.285156 C 608.953125 982.285156 607.625 983.167969 606.367188 984.242188 C 600.820312 988.988281 589.953125 993.496094 579.851562 995.242188 C 573.125 996.40625 571.890625 997.011719 577.441406 996.425781 C 580.964844 996.054688 586.417969 994.828125 591.722656 993.214844 C 598.628906 991.109375 609.964844 983.867188 614.746094 978.503906 C 615.546875 977.601562 615.914062 976.863281 615.5625 976.863281 C 615.207031 976.863281 614.082031 977.8125 613.0625 978.972656 M 235.203125 980.640625 C 226.867188 988.539062 220.816406 992.15625 212.320312 994.324219 C 203.832031 996.492188 203.183594 996.722656 206.597656 996.371094 C 215.589844 995.4375 225.4375 990.933594 232.5 984.523438 C 235.789062 981.539062 239.414062 977.433594 238.722656 977.476562 C 238.617188 977.484375 237.03125 978.90625 235.203125 980.640625 M 353.871094 984.007812 C 353.507812 990.035156 353.730469 989.628906 349.445312 992.074219 C 347.988281 992.90625 347.851562 993.128906 348.796875 993.128906 C 350.636719 993.125 353.835938 990.917969 354.222656 989.382812 C 354.410156 988.625 354.488281 985.835938 354.386719 983.1875 L 354.210938 978.371094 Z M 63.390625 984.542969 C 68.148438 990.195312 71.730469 992.621094 75.082031 992.464844 C 75.839844 992.429688 75.25 992.128906 73.777344 991.800781 C 71.597656 991.316406 70.203125 990.316406 66.308594 986.445312 C 63.675781 983.824219 61.402344 981.683594 61.253906 981.683594 C 61.101562 981.683594 62.066406 982.972656 63.390625 984.542969 M 243.832031 985.296875 C 243.832031 987.121094 243.945312 987.867188 244.082031 986.953125 C 244.21875 986.042969 244.21875 984.550781 244.082031 983.640625 C 243.945312 982.730469 243.832031 983.476562 243.832031 985.296875 M 464.859375 986.675781 C 464.742188 988.820312 463.222656 991.136719 461.21875 992.226562 C 460.355469 992.699219 460.011719 993.09375 460.457031 993.105469 C 461.90625 993.148438 464.808594 991.066406 465.140625 989.746094 C 465.320312 989.035156 465.347656 987.679688 465.207031 986.726562 L 464.949219 984.996094 Z M 427.511719 987.785156 C 427.445312 989.238281 427.765625 990.25 428.46875 990.796875 C 429.386719 991.515625 429.429688 991.507812 428.820312 990.71875 C 428.429688 990.21875 428 988.863281 427.859375 987.707031 L 427.605469 985.597656 Z M 279.898438 987.777344 C 279.792969 989.445312 277.375 992.285156 275.6875 992.710938 C 275.132812 992.851562 275.492188 992.863281 276.484375 992.734375 C 279.144531 992.386719 280.542969 990.714844 280.242188 988.25 C 280.050781 986.660156 279.972656 986.554688 279.898438 987.777344 M -11.746094 989.695312 C -12.207031 990.558594 -13.359375 991.535156 -14.304688 991.863281 C -16.296875 992.558594 -16.542969 993.128906 -14.855469 993.128906 C -13.160156 993.128906 -10.425781 990.582031 -10.6875 989.242188 C -10.875 988.277344 -11.023438 988.339844 -11.746094 989.695312 M 545.503906 993.734375 C 546 994.054688 546.949219 994.316406 547.613281 994.316406 C 548.609375 994.316406 548.660156 994.214844 547.914062 993.734375 C 547.417969 993.410156 546.46875 993.148438 545.804688 993.148438 C 544.808594 993.148438 544.753906 993.25 545.503906 993.734375 M 551.527344 995.210938 C 552.6875 995.671875 554.316406 996.054688 555.144531 996.058594 C 556.496094 996.066406 556.527344 996.015625 555.445312 995.589844 C 554.78125 995.324219 553.15625 994.941406 551.828125 994.738281 L 549.417969 994.371094 Z M 551.527344 995.210938 " fill="#386641" fill-opacity="1" fill-rule="evenodd"/>
  </g>
</svg>
